<svg width="215" height="46" viewBox="0 0 215 46" fill="none" xmlns="http://www.w3.org/2000/svg">
<rect width="46" height="46" rx="10" fill="#185CFF"/>
<path d="M28.6741 33.0072L28.6741 33.0073C29.2517 33.0198 29.826 32.9169 30.3633 32.7045C30.9006 32.4921 31.3901 32.1746 31.803 31.7705C32.216 31.3664 32.5441 30.884 32.768 30.3514C32.992 29.8188 33.1074 29.2469 33.1074 28.6691C33.1074 28.0914 32.992 27.5195 32.768 26.9869C32.5441 26.4543 32.216 25.9718 31.803 25.5678C31.3901 25.1637 30.9006 24.8462 30.3633 24.6338C29.826 24.4214 29.2517 24.3185 28.6741 24.331L28.6686 24.3311V24.3311C27.7492 24.3311 26.8389 24.1499 25.9895 23.798C25.1401 23.4461 24.3684 22.9303 23.7184 22.2801C23.0683 21.6299 22.5528 20.858 22.2012 20.0085C21.8495 19.159 21.6687 18.2486 21.669 17.3293L28.6741 33.0072ZM28.6741 33.0072L28.669 33.0072M28.6741 33.0072L28.669 33.0072M28.669 33.0072C27.5188 33.0056 26.4162 32.5478 25.6031 31.7343C24.79 30.9208 24.3327 29.818 24.3317 28.6678L24.3314 28.4181M28.669 33.0072L24.3314 28.4181M24.3314 28.4181H24.0817M24.3314 28.4181H24.0817M24.0817 28.4181H21.919H21.6689M24.0817 28.4181H21.6689M21.6689 28.4181L21.669 28.6682M21.6689 28.4181L21.669 28.6682M21.669 28.6682C21.6694 29.5265 21.4153 30.3656 20.9387 31.0794C20.4622 31.7933 19.7846 32.3498 18.9918 32.6785C18.1989 33.0072 17.3264 33.0934 16.4846 32.9262C15.6427 32.7591 14.8694 32.3459 14.2623 31.7392C13.6553 31.1324 13.2418 30.3593 13.0742 29.5175C12.9066 28.6757 12.9924 27.8032 13.3208 27.0102C13.6492 26.2172 14.2053 25.5394 14.9189 25.0625C15.6325 24.5856 16.4716 24.3311 17.3298 24.3311H17.5798M21.669 28.6682L17.5798 24.3311M17.5798 24.3311V24.0811M17.5798 24.3311V24.0811M17.5798 24.0811V21.9184V21.6684M17.5798 24.0811V21.6684M17.5798 21.6684H17.3298M17.5798 21.6684H17.3298M17.3298 21.6684C16.4716 21.6684 15.6327 21.4139 14.9191 20.9371M17.3298 21.6684L14.9191 20.9371M14.9191 20.9371C14.2056 20.4603 13.6494 19.7827 13.321 18.9898M14.9191 20.9371L13.321 18.9898M13.321 18.9898C12.9926 18.1969 12.9066 17.3244 13.0741 16.4827M13.321 18.9898L13.0741 16.4827M13.0741 16.4827C13.2415 15.641 13.6548 14.8679 14.2616 14.261M13.0741 16.4827L14.2616 14.261M14.2616 14.261C14.8684 13.6542 15.6416 13.2409 16.4833 13.0735M14.2616 14.261L16.4833 13.0735M16.4833 13.0735C17.325 12.9061 18.1975 12.992 18.9904 13.3204M16.4833 13.0735L18.9904 13.3204M18.9904 13.3204C19.7832 13.6488 20.4609 14.205 20.9377 14.9186M18.9904 13.3204L20.9377 14.9186M20.9377 14.9186C21.4145 15.6321 21.669 16.471 21.669 17.3292L20.9377 14.9186ZM32.7693 23.002C33.0709 22.7846 33.3553 22.5439 33.6197 22.282L33.6221 22.2796C34.9159 20.9626 35.6372 19.1879 35.629 17.3417C35.6208 15.4955 34.8837 13.7273 33.5783 12.4218C32.2728 11.1163 30.5046 10.3793 28.6584 10.3711C26.8122 10.3629 25.0375 11.0841 23.7205 12.3779L23.7205 12.3779L23.718 12.3804C23.4562 12.6448 23.2155 12.9292 22.9981 13.2308C22.461 12.4868 21.7819 11.8547 20.9988 11.3716C20.1097 10.8232 19.1091 10.4809 18.0703 10.3698C17.0316 10.2587 15.9812 10.3816 14.9962 10.7296C14.0112 11.0776 13.1166 11.6417 12.3782 12.3807C11.6398 13.1196 11.0762 14.0146 10.7289 14.9998C10.3816 15.985 10.2594 17.0355 10.3712 18.0742C10.4831 19.1129 10.8261 20.1133 11.3751 21.002C11.8586 21.7846 12.4911 22.4631 13.2353 22.9997C12.4907 23.5363 11.858 24.215 11.3743 24.9978C10.825 25.8868 10.4819 26.8875 10.3701 27.9265C10.2583 28.9655 10.3808 30.0163 10.7284 31.0018C11.076 31.9872 11.64 32.8823 12.3789 33.6212C13.1178 34.3601 14.0128 34.9241 14.9983 35.2717C15.9838 35.6193 17.0346 35.7417 18.0735 35.6299C19.1125 35.5182 20.1133 35.1751 21.0022 34.6258C21.7851 34.1421 22.4638 33.5093 23.0004 32.7648C23.5369 33.509 24.2154 34.1414 24.9981 34.6249C25.8868 35.174 26.8872 35.517 27.9259 35.6288C28.9645 35.7407 30.015 35.6184 31.0003 35.2711C31.9855 34.9238 32.8804 34.3603 33.6194 33.6219C34.3583 32.8834 34.9225 31.9889 35.2705 31.0039C35.6185 30.0189 35.7414 28.9685 35.6303 27.9297C35.5192 26.891 35.1769 25.8904 34.6284 25.0012C34.1454 24.2181 33.5133 23.5391 32.7693 23.002ZM25.6012 14.2623L25.6015 14.262C26.3112 13.5519 27.2451 13.1098 28.2442 13.0111C29.2433 12.9123 30.2457 13.1631 31.0806 13.7207C31.9155 14.2782 32.5312 15.108 32.8228 16.0687C33.1145 17.0293 33.064 18.0614 32.68 18.989C32.2959 19.9166 31.6021 20.6823 30.7168 21.1557C29.8315 21.6291 28.8094 21.7808 27.8247 21.585C26.84 21.3893 25.9537 20.8581 25.3168 20.0821C24.6798 19.3061 24.3317 18.3332 24.3317 17.3293L24.3317 17.3288C24.3305 16.7592 24.4421 16.195 24.66 15.6687C24.8779 15.1424 25.1977 14.6645 25.6012 14.2623Z" fill="white" stroke="white" stroke-width="0.5"/>
<path d="M55.2 22.372C55.2 18.6554 57.4975 15.6437 61.638 15.6437C65.7785 15.6437 67.5962 18.1556 67.5962 21.462C67.5966 21.9689 67.5544 22.4748 67.47 22.9743H58.2801C58.4569 25.153 59.6435 26.5371 61.9157 26.5371C64.5414 26.5371 65.122 25.153 65.122 25.153H67.3312V26.8318C67.3312 26.8318 66.0688 29.113 61.8778 29.113C57.4564 29.113 55.2 26.2679 55.2 22.372ZM64.6171 20.8597C64.6171 19.3731 63.6703 18.194 61.638 18.194C59.6056 18.194 58.7093 19.2962 58.3811 20.8597H64.6171Z" fill="#185CFF"/>
<path d="M68.6219 26.7293V25.0376H70.7931C70.8184 25.1914 71.6768 26.6396 73.8985 26.6396C75.5648 26.6396 76.1076 26.0757 76.1076 25.2299C76.1076 24.179 75.0725 23.9227 73.7092 23.6279L72.2448 23.346C70.3261 23.0256 68.8365 21.9619 68.8365 19.6294C68.8365 17.4251 70.5533 15.6053 73.6334 15.6053C76.4358 15.6053 77.7739 16.7074 78.3041 17.848V19.5397H76.1581C76.1329 19.4115 75.5269 18.0531 73.6082 18.0531C72.1943 18.0531 71.6642 18.6682 71.6642 19.4884C71.6642 20.3086 72.4216 20.7444 73.5577 20.975L75.022 21.257C77.0922 21.6415 78.91 22.4873 78.91 24.9223C78.91 27.306 77.168 29.0874 73.8859 29.0874C70.1367 29.113 68.7734 27.0881 68.6219 26.7293Z" fill="#185CFF"/>
<path d="M81.1602 24.3712V18.5272H79.1656V15.9384H81.2359L81.4126 12.7089H84.215V15.9384H89.2139V18.5272H84.215V24.1661C84.215 25.6528 84.6947 26.4986 86.0076 26.4986C87.3709 26.4986 87.5224 25.499 87.5224 25.3708H89.6463V27.0881C89.1666 28.0493 88.1062 29.113 85.8845 29.113C82.8012 29.113 81.1602 27.3957 81.1602 24.3712Z" fill="#185CFF"/>
<path d="M90.5173 10.1201H93.7741V13.2728H90.5173V10.1201ZM90.6183 15.9385H93.6732V28.8055H90.6183V15.9385Z" fill="#185CFF"/>
<path d="M95.8791 15.9385H98.6847L98.8614 17.5789C99.1995 16.9791 99.6887 16.4814 100.279 16.1368C100.869 15.7922 101.539 15.6132 102.219 15.6181C104.088 15.6181 105.249 16.4895 105.855 17.7711C106.247 17.0975 106.81 16.5427 107.485 16.1641C108.16 15.7855 108.922 15.597 109.692 15.6181C112.823 15.6181 114.035 17.9762 114.035 20.8213V28.8055H110.955V21.116C110.955 19.4756 110.374 18.3222 108.834 18.3222C107.067 18.3222 106.461 19.7576 106.461 20.9879V28.8055H103.456V21.0648C103.456 19.4243 102.85 18.3222 101.336 18.3222C99.5178 18.3222 98.9371 19.8601 98.9371 21.3211V28.8055H95.8791V15.9385Z" fill="#185CFF"/>
<path d="M115.433 25.1145C115.433 22.8333 117.011 21.2185 120.709 21.2185C121.602 21.2243 122.491 21.3318 123.36 21.5389V20.8341C123.36 19.1168 122.628 18.2453 120.911 18.2453C118.993 18.2453 118.336 19.6294 118.336 19.6294H116.156V17.9377C116.156 17.9377 117.317 15.6309 120.978 15.6309C124.563 15.6309 126.431 17.4251 126.431 20.911V28.8054H123.805L123.528 27.0369C123.116 27.6933 122.544 28.2298 121.867 28.5938C121.19 28.9578 120.431 29.1367 119.665 29.113C116.847 29.113 115.433 27.3188 115.433 25.1145ZM123.36 24.1918V23.5766C122.527 23.3614 121.67 23.2537 120.81 23.2562C118.993 23.2562 118.462 24.0764 118.462 24.9479C118.462 26.127 119.169 26.6396 120.432 26.6396C122.325 26.6524 123.36 25.2683 123.36 24.1918Z" fill="#185CFF"/>
<path d="M129.167 24.3712V18.5272H127.173V15.9384H129.243L129.41 12.7089H132.213V15.9384H137.211V18.5272H132.222V24.1661C132.222 25.6528 132.702 26.4986 134.015 26.4986C135.378 26.4986 135.529 25.499 135.529 25.3708H137.65V27.0881C137.17 28.0493 136.11 29.113 133.888 29.113C130.808 29.113 129.167 27.3957 129.167 24.3712Z" fill="#185CFF"/>
<path d="M137.959 22.372C137.959 18.6554 140.257 15.6437 144.397 15.6437C148.538 15.6437 150.356 18.1556 150.356 21.462C150.356 21.9689 150.314 22.4748 150.229 22.9743H141.04C141.216 25.153 142.403 26.5371 144.675 26.5371C147.301 26.5371 147.881 25.153 147.881 25.153H150.091V26.8318C150.091 26.8318 148.828 29.113 144.637 29.113C140.206 29.113 137.959 26.2679 137.959 22.372ZM147.377 20.8597C147.377 19.3731 146.43 18.194 144.397 18.194C142.365 18.194 141.469 19.2962 141.141 20.8597H147.377Z" fill="#185CFF"/>
<path d="M151.381 26.7293V25.0376H153.553C153.578 25.1914 154.436 26.6396 156.658 26.6396C158.324 26.6396 158.883 26.0757 158.883 25.2299C158.883 24.179 157.848 23.9227 156.484 23.6279L155.017 23.346C153.098 23.0256 151.609 21.9619 151.609 19.6294C151.609 17.4251 153.328 15.6053 156.405 15.6053C159.208 15.6053 160.546 16.7074 161.079 17.848V19.5397H158.93C158.905 19.4115 158.299 18.0531 156.38 18.0531C154.97 18.0531 154.436 18.6682 154.436 19.4884C154.436 20.3086 155.197 20.7444 156.33 20.975L157.797 21.257C159.864 21.6415 161.685 22.4873 161.685 24.9223C161.685 27.306 159.943 29.0874 156.658 29.0874C152.896 29.113 151.533 27.0881 151.381 26.7293Z" fill="#185CFF"/>
<path d="M163.908 32.4195V30.7278H166.152C166.152 30.7278 166.834 32.7014 169.535 32.7014C172.11 32.7014 173.376 30.9329 173.376 28.1647V26.8575C172.464 28.1903 170.974 29.0105 169.081 29.0105C165.47 29.0105 163.274 25.986 163.274 22.3463C163.274 18.6298 165.483 15.6181 169.106 15.6181C169.95 15.5927 170.786 15.7852 171.537 16.1774C172.287 16.5697 172.928 17.1489 173.398 17.8608L173.631 15.9385H176.472V28.1134C176.472 32.6245 173.818 35.4824 169.601 35.4824C165.12 35.4824 163.908 32.4195 163.908 32.4195ZM173.376 22.3207C173.376 20.1164 172.012 18.3222 169.863 18.3222C167.515 18.3222 166.329 20.1164 166.329 22.3207C166.329 24.525 167.515 26.3448 169.863 26.3448C172.016 26.3448 173.379 24.5506 173.379 22.3207H173.376Z" fill="#185CFF"/>
<path d="M178.583 23.7561V15.9385H181.638V23.3716C181.638 25.1658 182.345 26.4217 184.137 26.4217C186.309 26.4217 186.978 24.8198 186.978 23.3716V15.9385H190.058V28.8055H187.217L187.041 27.0882C186.628 27.7221 186.065 28.24 185.403 28.594C184.741 28.948 184.002 29.1265 183.254 29.113C179.845 29.113 178.583 26.6781 178.583 23.7561Z" fill="#185CFF"/>
<path d="M192.298 15.9385H195.101L195.277 17.6302C195.626 16.9963 196.141 16.4729 196.765 16.1177C197.389 15.7626 198.097 15.5897 198.812 15.6181C200.706 15.6181 201.741 16.6433 201.968 17.9505V19.6935H199.759C199.734 19.6935 199.532 18.2581 197.764 18.2581C196.123 18.2581 195.341 19.6166 195.341 21.4364V28.8055H192.286L192.298 15.9385Z" fill="#185CFF"/>
<path d="M202.713 23.7561V15.9385H205.768V23.3716C205.768 25.1658 206.475 26.4217 208.267 26.4217C210.438 26.4217 211.107 24.8198 211.107 23.3716V15.9385H214.187V28.8055H211.347L211.17 27.0882C210.758 27.7221 210.195 28.24 209.533 28.594C208.871 28.948 208.132 29.1265 207.383 29.113C203.975 29.113 202.713 26.6781 202.713 23.7561Z" fill="#185CFF"/>
</svg>
